<svg width="25" height="25" viewBox="0 0 25 25" fill="none" xmlns="http://www.w3.org/2000/svg">
<path d="M5 0C2.23858 0 0 2.23858 0 5V20C0 22.7614 2.23858 25 5 25H20C22.7614 25 25 22.7614 25 20V5C25 2.23858 22.7614 0 20 0H5ZM16.6667 5.72917C16.6667 6.59211 15.9671 7.29167 15.1042 7.29167H14.6635C14.0219 7.29167 13.5417 7.55417 13.5417 8.21771V8.21771C13.5417 8.85686 14.0598 9.375 14.699 9.375H15.042C15.9176 9.375 16.6072 10.1217 16.5376 10.9945L16.5274 11.1235C16.4654 11.9008 15.8166 12.5 15.0369 12.5V12.5C14.2111 12.5 13.5417 13.1694 13.5417 13.9952V19.2708C13.5417 20.1338 12.8421 20.8333 11.9792 20.8333V20.8333C11.1162 20.8333 10.4167 20.1338 10.4167 19.2708V13.5417C10.4167 12.9664 9.9503 12.5 9.375 12.5V12.5C8.7997 12.5 8.33333 12.0336 8.33333 11.4583V10.4167C8.33333 9.84137 8.7997 9.375 9.375 9.375V9.375C9.9503 9.375 10.4167 8.90863 10.4167 8.33333V7.37187C10.4167 5.26562 11.525 4.16667 14.0219 4.16667H15.1042C15.9671 4.16667 16.6667 4.86622 16.6667 5.72917V5.72917Z" fill="black"/>
</svg>
