<svg width="41" height="41" viewBox="0 0 41 41" fill="none" xmlns="http://www.w3.org/2000/svg">
<path d="M18.7917 25.625H22.2084V29.0417H18.7917V25.625ZM18.7917 11.9583H22.2084V22.2083H18.7917V11.9583ZM20.483 3.41666C11.053 3.41666 3.41675 11.07 3.41675 20.5C3.41675 29.93 11.053 37.5833 20.483 37.5833C29.9301 37.5833 37.5834 29.93 37.5834 20.5C37.5834 11.07 29.9301 3.41666 20.483 3.41666ZM20.5001 34.1667C12.9492 34.1667 6.83341 28.0508 6.83341 20.5C6.83341 12.9492 12.9492 6.83332 20.5001 6.83332C28.0509 6.83332 34.1667 12.9492 34.1667 20.5C34.1667 28.0508 28.0509 34.1667 20.5001 34.1667Z" fill="white"/>
</svg>
