<svg width="20" height="20" viewBox="0 0 20 20" fill="none" xmlns="http://www.w3.org/2000/svg">
<path d="M9.16663 15H10.8333V13.3333H9.16663V15ZM9.99996 1.66667C5.39996 1.66667 1.66663 5.4 1.66663 10C1.66663 14.6 5.39996 18.3333 9.99996 18.3333C14.6 18.3333 18.3333 14.6 18.3333 10C18.3333 5.4 14.6 1.66667 9.99996 1.66667ZM9.99996 16.6667C6.32496 16.6667 3.33329 13.675 3.33329 10C3.33329 6.325 6.32496 3.33334 9.99996 3.33334C13.675 3.33334 16.6666 6.325 16.6666 10C16.6666 13.675 13.675 16.6667 9.99996 16.6667ZM9.99996 5C8.15829 5 6.66663 6.49167 6.66663 8.33334H8.33329C8.33329 7.41667 9.08329 6.66667 9.99996 6.66667C10.9166 6.66667 11.6666 7.41667 11.6666 8.33334C11.6666 10 9.16663 9.79167 9.16663 12.5H10.8333C10.8333 10.625 13.3333 10.4167 13.3333 8.33334C13.3333 6.49167 11.8416 5 9.99996 5Z" fill="black" fill-opacity="0.5"/>
</svg>
